<?xml version="1.0" encoding="utf-8"?>
<!-- Generator: Adobe Illustrator 21.1.0, SVG Export Plug-In . SVG Version: 6.00 Build 0)  -->
<svg version="1.1" id="Слой_1" xmlns="http://www.w3.org/2000/svg" xmlns:xlink="http://www.w3.org/1999/xlink" x="0px" y="0px"
	 viewBox="0 0 24 24" style="enable-background:new 0 0 24 24;" xml:space="preserve">
<style type="text/css">
	.st0{fill:#ff6347;}
</style>
<path class="st0" d="M22.4,15.7L15.8,12l6.7-3.7c0.6-0.3,0.7-1,0.4-1.5l-0.9-1.6c-0.3-0.5-1-0.7-1.6-0.4l-6.5,3.9L14,1.1
	c0-0.6-0.5-1.1-1.1-1.1h-1.8C10.5,0,9.9,0.5,10,1.1l0.2,7.6L3.6,4.8C3.1,4.5,2.4,4.7,2.1,5.2L1.2,6.8C0.8,7.3,1,8,1.6,8.3L8.3,12
	l-6.7,3.7c-0.6,0.3-0.7,1-0.4,1.5l0.9,1.6c0.3,0.5,1,0.7,1.6,0.4l6.5-3.9L10,22.9c0,0.6,0.5,1.1,1.1,1.1h1.8c0.6,0,1.1-0.5,1.1-1.1
	l-0.2-7.6l6.5,3.9c0.5,0.3,1.2,0.1,1.6-0.4l0.9-1.6C23.2,16.7,23,16,22.4,15.7z"/>
</svg>
